<svg width="34" height="33" viewBox="0 0 34 33" fill="none" xmlns="http://www.w3.org/2000/svg">
<path opacity="0.8" d="M12.0365 0V6.37066C12.0365 10.5328 11.7883 14.9073 11.2919 19.4942C10.7956 23.9961 10.1752 28.4981 9.4307 33H2.60583C1.86131 28.4981 1.24094 23.9961 0.744591 19.4942C0.24824 14.9073 0 10.4904 0 6.24325V0H12.0365ZM34 0V6.37066C34 10.5328 33.7519 14.9073 33.2556 19.4942C32.7592 23.9961 32.1387 28.4981 31.3942 33H24.5695C23.8249 28.4981 23.2044 23.9961 22.7081 19.4942C22.2117 14.9073 21.9636 10.4904 21.9636 6.24325V0H34Z" fill="#2B3D6B"/>
</svg>
