<svg width="38" height="38" viewBox="0 0 38 38" fill="none" xmlns="http://www.w3.org/2000/svg">
<path fill-rule="evenodd" clip-rule="evenodd" d="M21.333 16.6667V8.50004C21.333 3.98972 24.9893 0.333374 29.4997 0.333374C34.01 0.333374 37.6663 3.98972 37.6663 8.50004C37.6663 13.0104 34.01 16.6667 29.4997 16.6667H21.333ZM32.9997 8.50004C32.9997 10.433 31.4327 12 29.4997 12H25.9997V8.50004C25.9997 6.56704 27.5667 5.00004 29.4997 5.00004C31.4327 5.00004 32.9997 6.56704 32.9997 8.50004ZM11.9997 26H8.49967C6.56668 26 4.99967 27.567 4.99967 29.5C4.99967 31.433 6.56668 33 8.49967 33C10.4327 33 11.9997 31.433 11.9997 29.5V26ZM25.9997 29.5C25.9997 31.433 27.5667 33 29.4997 33C31.4327 33 32.9997 31.433 32.9997 29.5C32.9997 27.567 31.4327 26 29.4997 26H25.9997V29.5ZM11.9997 8.50004C11.9997 6.56704 10.4327 5.00004 8.49967 5.00004C6.56668 5.00004 4.99967 6.56704 4.99967 8.50004C4.99967 10.433 6.56668 12 8.49967 12H11.9997V8.50004ZM18.9997 21.3334C17.711 21.3334 16.6663 20.2887 16.6663 19C16.6663 17.7114 17.711 16.6667 18.9997 16.6667C20.2883 16.6667 21.333 17.7114 21.333 19C21.333 20.2887 20.2883 21.3334 18.9997 21.3334ZM37.6663 29.5C37.6663 24.9897 34.01 21.3334 29.4997 21.3334H21.333V29.5C21.333 34.0104 24.9893 37.6667 29.4997 37.6667C34.01 37.6667 37.6663 34.0104 37.6663 29.5ZM16.6663 29.5C16.6663 34.0104 13.01 37.6667 8.49967 37.6667C3.98935 37.6667 0.333008 34.0104 0.333008 29.5C0.333008 24.9897 3.98935 21.3334 8.49967 21.3334H16.6663V29.5ZM0.333008 8.50004C0.333008 13.0104 3.98935 16.6667 8.49967 16.6667H16.6663V8.50004C16.6663 3.98972 13.01 0.333374 8.49967 0.333374C3.98935 0.333374 0.333008 3.98972 0.333008 8.50004Z" fill="#00A6FF"/>
</svg>
