<svg width="40" height="40" viewBox="0 0 40 40" fill="none" xmlns="http://www.w3.org/2000/svg">
<g opacity="0.8">
<path opacity="0.3" fill-rule="evenodd" clip-rule="evenodd" d="M28.0189 14.1667C26.9088 9.85362 22.9936 6.66669 18.334 6.66669C12.8111 6.66669 8.33398 11.1438 8.33398 16.6667C8.33398 19.5407 9.54637 22.1315 11.4876 23.9556C12.3825 25.5722 14.1054 26.6667 16.084 26.6667H18.334H33.084C35.9835 26.6667 38.334 24.3162 38.334 21.4167V19.4167C38.334 16.5172 35.9835 14.1667 33.084 14.1667H28.0189Z" fill="#2B3D6B"/>
<path fill-rule="evenodd" clip-rule="evenodd" d="M21.351 20.8333C20.2409 16.5202 16.3256 13.3333 11.666 13.3333C6.14317 13.3333 1.66602 17.8105 1.66602 23.3333C1.66602 26.2073 2.8784 28.7981 4.81963 30.6222C5.71448 32.2388 7.43743 33.3333 9.41602 33.3333H11.666H26.416C29.3155 33.3333 31.666 30.9828 31.666 28.0833V26.0833C31.666 23.1838 29.3155 20.8333 26.416 20.8333H21.351Z" fill="#2B3D6B"/>
</g>
</svg>
