<svg width="40" height="40" viewBox="0 0 40 40" fill="none" xmlns="http://www.w3.org/2000/svg">
<g opacity="0.8">
<path d="M20.4882 11.1785C19.8373 10.5276 19.8373 9.47234 20.4882 8.82147C21.139 8.17059 22.1943 8.17059 22.8452 8.82147L32.8452 18.8215C33.4761 19.4524 33.4982 20.4684 32.8953 21.1262L23.7286 31.1262C23.1066 31.8047 22.0523 31.8506 21.3738 31.2286C20.6953 30.6066 20.6494 29.5523 21.2714 28.8738L29.3598 20.0501L20.4882 11.1785Z" fill="#2B3D6B"/>
<path opacity="0.3" d="M8.82084 11.1785C8.16996 10.5276 8.16996 9.47234 8.82084 8.82147C9.47171 8.17059 10.527 8.17059 11.1779 8.82147L21.1779 18.8215C21.8088 19.4524 21.8309 20.4684 21.2279 21.1262L12.0613 31.1262C11.4393 31.8047 10.385 31.8506 9.70647 31.2286C9.02794 30.6066 8.9821 29.5523 9.60409 28.8738L17.6925 20.0501L8.82084 11.1785Z" fill="#2B3D6B"/>
</g>
</svg>
