<svg width="121" height="41" viewBox="0 0 121 41" fill="none" xmlns="http://www.w3.org/2000/svg">
<path opacity="0.88" d="M51.4913 20.9882C51.4913 26.6689 47.0472 30.855 41.5933 30.855C36.1394 30.855 31.6953 26.6689 31.6953 20.9882C31.6953 15.2674 36.1394 11.1213 41.5933 11.1213C47.0472 11.1213 51.4913 15.2674 51.4913 20.9882ZM47.1584 20.9882C47.1584 17.4383 44.5827 15.0094 41.5933 15.0094C38.6039 15.0094 36.0282 17.4383 36.0282 20.9882C36.0282 24.5025 38.6039 26.967 41.5933 26.967C44.5827 26.967 47.1584 24.4981 47.1584 20.9882Z" fill="#2B3D6B"/>
<path opacity="0.56" d="M72.8448 20.9882C72.8448 26.6689 68.4007 30.855 62.9468 30.855C57.4929 30.855 53.0488 26.6689 53.0488 20.9882C53.0488 15.2718 57.4929 11.1213 62.9468 11.1213C68.4007 11.1213 72.8448 15.2674 72.8448 20.9882ZM68.5119 20.9882C68.5119 17.4383 65.9362 15.0094 62.9468 15.0094C59.9574 15.0094 57.3817 17.4383 57.3817 20.9882C57.3817 24.5025 59.9574 26.967 62.9468 26.967C65.9362 26.967 68.5119 24.4981 68.5119 20.9882Z" fill="#2B3D6B"/>
<path opacity="0.72" d="M93.3077 11.7174V29.4315C93.3077 36.7182 89.0104 39.6942 83.9302 39.6942C79.1481 39.6942 76.2699 36.4958 75.1844 33.88L78.9568 32.3097C79.6285 33.9156 81.2745 35.8107 83.9258 35.8107C87.1777 35.8107 89.1928 33.8044 89.1928 30.0276V28.6085H89.0416C88.0718 29.8052 86.2034 30.8506 83.8457 30.8506C78.9123 30.8506 74.3926 26.5533 74.3926 21.0238C74.3926 15.4542 78.9123 11.1213 83.8457 11.1213C86.199 11.1213 88.0674 12.1667 89.0416 13.3278H89.1928V11.7219H93.3077V11.7174ZM89.4998 21.0238C89.4998 17.5495 87.1821 15.0094 84.2327 15.0094C81.2433 15.0094 78.7388 17.5495 78.7388 21.0238C78.7388 24.4625 81.2433 26.967 84.2327 26.967C87.1821 26.967 89.4998 24.4625 89.4998 21.0238Z" fill="#2B3D6B"/>
<path opacity="0.56" d="M100.091 1.33459V30.25H95.8652V1.33459H100.091Z" fill="#2B3D6B"/>
<path opacity="0.88" d="M116.561 24.2356L119.924 26.4777C118.839 28.0836 116.223 30.8506 111.703 30.8506C106.098 30.8506 101.912 26.5177 101.912 20.9837C101.912 15.1161 106.134 11.1169 111.218 11.1169C116.339 11.1169 118.843 15.1917 119.662 17.3938L120.111 18.5148L106.921 23.9776C107.931 25.9572 109.501 26.967 111.703 26.967C113.91 26.967 115.44 25.8816 116.561 24.2356ZM106.209 20.6857L115.026 17.0245C114.541 15.7923 113.082 14.9337 111.365 14.9337C109.163 14.9337 106.098 16.8777 106.209 20.6857Z" fill="#2B3D6B"/>
<path opacity="0.72" d="M15.6989 18.4213V14.2353H29.8052C29.9431 14.9648 30.0142 15.8278 30.0142 16.762C30.0142 19.9027 29.1557 23.7862 26.3887 26.5532C23.6973 29.3558 20.2586 30.8505 15.7033 30.8505C7.26001 30.8505 0.160156 23.9731 0.160156 15.5298C0.160156 7.08647 7.26001 0.209045 15.7033 0.209045C20.3743 0.209045 23.7018 2.04184 26.2018 4.4307L23.248 7.38452C21.4553 5.70298 19.0264 4.39511 15.6989 4.39511C9.53321 4.39511 4.711 9.36412 4.711 15.5298C4.711 21.6954 9.53321 26.6644 15.6989 26.6644C19.6981 26.6644 21.9757 25.0585 23.4349 23.5994C24.6182 22.4161 25.3967 20.7257 25.7036 18.4169L15.6989 18.4213Z" fill="#2B3D6B"/>
</svg>
