<svg width="26" height="30" viewBox="0 0 26 30" fill="none" xmlns="http://www.w3.org/2000/svg">
<path fill-rule="evenodd" clip-rule="evenodd" d="M11.8638 29.1873C8.9281 26.6573 0.333008 18.7192 0.333008 12.5C0.333008 5 5.33301 0 12.833 0C20.333 0 25.333 6.25 25.333 12.5C25.333 17.7083 16.6527 26.3886 13.7591 29.1376C13.2267 29.6434 12.4201 29.6667 11.8638 29.1873ZM16.9997 10.8333C16.9997 13.1345 15.1342 15 12.833 15C10.5318 15 8.66634 13.1345 8.66634 10.8333C8.66634 8.53215 10.5318 6.66667 12.833 6.66667C15.1342 6.66667 16.9997 8.53215 16.9997 10.8333Z" fill="#00A6FF"/>
</svg>
