<svg width="29" height="29" viewBox="0 0 29 29" fill="none" xmlns="http://www.w3.org/2000/svg">
<path fill-rule="evenodd" clip-rule="evenodd" d="M0.174011 14.735C0.174011 7.05092 6.40412 0.821716 14.0891 0.821716C21.7741 0.821716 28.0042 7.05092 28.0042 14.735C28.0042 22.4192 21.7741 28.6484 14.0891 28.6484C6.40412 28.6484 0.174011 22.4192 0.174011 14.735ZM11.941 19.8204L18.8985 15.4725C19.1527 15.3133 19.3073 15.0347 19.3073 14.735C19.3073 14.4353 19.1527 14.1567 18.8985 13.9975L11.941 9.64957C11.6728 9.48185 11.3348 9.4725 11.0583 9.62663C10.7819 9.7799 10.6103 10.0708 10.6103 10.3871V19.0829C10.6103 19.3992 10.7819 19.6901 11.0583 19.8434C11.1898 19.9164 11.335 19.9525 11.48 19.9525C11.6401 19.9525 11.8002 19.9083 11.941 19.8204Z" fill="white"/>
</svg>
