<svg width="944" height="591" viewBox="0 0 944 591" fill="none" xmlns="http://www.w3.org/2000/svg">
<g filter="url(#filter0_d)">
<path d="M36 25.716C36 17.3835 42.7548 10.6286 51.0873 10.6286H913.579C921.911 10.6286 928.666 17.3835 928.666 25.7159V534.913C928.666 543.245 921.911 550 913.579 550H51.0873C42.7548 550 36 543.245 36 534.913V25.716Z" fill="white"/>
</g>
<mask id="mask0" mask-type="alpha" maskUnits="userSpaceOnUse" x="36" y="10" width="894" height="540">
<path d="M36 25.0873C36 16.7548 42.7548 10 51.0873 10H914.207C922.54 10 929.294 16.7548 929.294 25.0873V534.913C929.294 543.245 922.54 550 914.207 550H51.0873C42.7548 550 36 543.245 36 534.913V25.0873Z" fill="white"/>
</mask>
<g mask="url(#mask0)">
<path d="M36 25.0873C36 16.7548 42.7548 10 51.0873 10H914.207C922.54 10 929.295 16.7548 929.295 25.0873V48.3469H36V25.0873Z" fill="#EDF3FF"/>
<circle opacity="0.24" cx="54.859" cy="29.4878" r="3.77183" fill="#00A6FF"/>
<circle opacity="0.24" cx="69.9464" cy="29.4878" r="3.77183" fill="#00A6FF"/>
<circle opacity="0.24" cx="85.0337" cy="29.4878" r="3.77183" fill="#00A6FF"/>
<rect x="36" y="48.3469" width="892.666" height="501.653" fill="white"/>
</g>
<defs>
<filter id="filter0_d" x="0.796273" y="0.570423" width="942.957" height="589.662" filterUnits="userSpaceOnUse" color-interpolation-filters="sRGB">
<feFlood flood-opacity="0" result="BackgroundImageFix"/>
<feColorMatrix in="SourceAlpha" type="matrix" values="0 0 0 0 0 0 0 0 0 0 0 0 0 0 0 0 0 0 127 0"/>
<feOffset dx="-10.0582" dy="15.0873"/>
<feGaussianBlur stdDeviation="12.5728"/>
<feColorMatrix type="matrix" values="0 0 0 0 0.819608 0 0 0 0 0.862745 0 0 0 0 0.964706 0 0 0 0.4 0"/>
<feBlend mode="normal" in2="BackgroundImageFix" result="effect1_dropShadow"/>
<feBlend mode="normal" in="SourceGraphic" in2="effect1_dropShadow" result="shape"/>
</filter>
</defs>
</svg>
