<svg width="133" height="41" viewBox="0 0 133 41" fill="none" xmlns="http://www.w3.org/2000/svg">
<g clip-path="url(#clip0)">
<path opacity="0.56" d="M82.4919 31.3606C74.7723 37.0506 63.5831 40.0864 53.9495 40.0864C40.4416 40.0864 28.2811 35.0904 19.0811 26.7809C18.3583 26.1275 19.0059 25.237 19.8733 25.7458C29.8019 31.5226 42.0781 34.9978 54.7591 34.9978C63.3114 34.9978 72.7195 33.2284 81.3701 29.5565C82.6769 29.0014 83.7698 30.4123 82.4919 31.3606Z" fill="#2B3D6B"/>
<path opacity="0.56" d="M85.7013 27.6889C84.7183 26.4284 79.1787 27.0933 76.6922 27.3882C75.9347 27.4808 75.8191 26.8216 76.5014 26.3474C80.9134 23.2422 88.1531 24.1385 88.9974 25.1793C89.8416 26.226 88.7776 33.483 84.6316 36.9467C83.9955 37.4787 83.3883 37.1953 83.6717 36.4899C84.6027 34.1653 86.6902 28.9553 85.7013 27.6889Z" fill="#2B3D6B"/>
<path opacity="0.8" d="M76.8667 4.42591V1.40745C76.8667 0.950636 77.2137 0.644165 77.63 0.644165H91.1437C91.5774 0.644165 91.9243 0.95642 91.9243 1.40745V3.99223C91.9186 4.42591 91.5542 4.99259 90.9066 5.88888L83.904 15.8868C86.5061 15.8232 89.2528 16.2106 91.6121 17.5406C92.1441 17.8413 92.2886 18.2808 92.3291 18.7144V21.9353C92.3291 22.3748 91.8434 22.8894 91.3345 22.6234C87.1769 20.4434 81.6546 20.2063 77.0575 22.6465C76.5892 22.901 76.0977 22.3921 76.0977 21.9526V18.8937C76.0977 18.4022 76.1034 17.5637 76.5949 16.8178L84.7078 5.18342H77.6474C77.2137 5.18342 76.8667 4.87695 76.8667 4.42591Z" fill="#2B3D6B"/>
<path opacity="0.8" d="M27.5703 23.2595H23.459C23.0658 23.2306 22.7535 22.9357 22.7246 22.5598V1.45954C22.7246 1.03741 23.0773 0.702027 23.5168 0.702027H27.3506C27.7496 0.719363 28.0676 1.02585 28.0965 1.40749V4.16574H28.1717C29.1721 1.50001 31.0514 0.256775 33.5841 0.256775C36.1573 0.256775 37.7649 1.50001 38.9214 4.16574C39.9159 1.50001 42.1769 0.256775 44.5998 0.256775C46.3229 0.256775 48.208 0.96802 49.3587 2.56399C50.6598 4.33921 50.3938 6.9182 50.3938 9.17916L50.388 22.4962C50.388 22.9183 50.0353 23.2595 49.5958 23.2595H45.4903C45.0797 23.2306 44.7501 22.901 44.7501 22.4962V11.3129C44.7501 10.4224 44.8311 8.20192 44.6345 7.35767C44.328 5.94096 43.4086 5.54197 42.2174 5.54197C41.2228 5.54197 40.1819 6.20695 39.7598 7.27093C39.3377 8.33491 39.3782 10.1159 39.3782 11.3129V22.4962C39.3782 22.9183 39.0254 23.2595 38.586 23.2595H34.4804C34.0641 23.2306 33.7402 22.901 33.7402 22.4962L33.7345 11.3129C33.7345 8.95942 34.1219 5.49571 31.2017 5.49571C28.2469 5.49571 28.3625 8.87268 28.3625 11.3129V22.4962C28.3625 22.9183 28.0098 23.2595 27.5703 23.2595Z" fill="#2B3D6B"/>
<path opacity="0.8" d="M103.559 0.256775C109.659 0.256775 112.961 5.49571 112.961 12.1571C112.961 18.593 109.312 23.699 103.559 23.699C97.568 23.699 94.3066 18.46 94.3066 11.9316C94.3066 5.36271 97.6084 0.256775 103.559 0.256775ZM103.593 4.56473C100.563 4.56473 100.372 8.69342 100.372 11.2666C100.372 13.8456 100.332 19.3505 103.559 19.3505C106.745 19.3505 106.895 14.9096 106.895 12.2034C106.895 10.4224 106.82 8.29443 106.282 6.60595C105.82 5.1372 104.9 4.56473 103.593 4.56473Z" fill="#2B3D6B"/>
<path opacity="0.8" d="M120.871 23.2595H116.777C116.367 23.2306 116.037 22.901 116.037 22.4962L116.031 1.39014C116.066 1.00272 116.407 0.702027 116.823 0.702027H120.634C120.993 0.719363 121.288 0.96224 121.368 1.29184V4.51847H121.444C122.594 1.63301 124.208 0.256775 127.047 0.256775C128.891 0.256775 130.69 0.921762 131.846 2.74324C132.922 4.43173 132.922 7.27094 132.922 9.31215V22.5945C132.876 22.9646 132.534 23.2595 132.13 23.2595H128.007C127.631 23.2306 127.319 22.953 127.278 22.5945V11.1336C127.278 8.82642 127.544 5.44945 124.705 5.44945C123.705 5.44945 122.785 6.12022 122.328 7.13793C121.75 8.42743 121.675 9.71115 121.675 11.1336V22.4962C121.669 22.9183 121.311 23.2595 120.871 23.2595Z" fill="#2B3D6B"/>
<path opacity="0.8" d="M12.1944 13.1809V12.2904C9.22219 12.2904 6.0823 12.9265 6.0823 16.4307C6.0823 18.2059 7.00171 19.4087 8.58033 19.4087C9.73683 19.4087 10.7719 18.6974 11.4253 17.5409C12.2349 16.1184 12.1944 14.7827 12.1944 13.1809ZM16.3404 23.202C16.0687 23.4449 15.6754 23.4622 15.369 23.3003C14.0043 22.1669 13.7614 21.6407 13.0097 20.5594C10.7545 22.8608 9.15859 23.5489 6.23264 23.5489C2.77471 23.5489 0.0800781 21.4152 0.0800781 17.1419C0.0800781 13.8054 1.89 11.5329 4.4632 10.4227C6.69524 9.43966 9.812 9.26619 12.1944 8.99442V8.46243C12.1944 7.48518 12.2696 6.32869 11.6971 5.48445C11.194 4.72694 10.2341 4.41468 9.38988 4.41468C7.82283 4.41468 6.42347 5.21845 6.0823 6.8838C6.01291 7.25389 5.74113 7.61818 5.37105 7.63553L1.38114 7.20762C1.04575 7.13246 0.675673 6.86067 0.768193 6.34604C1.68761 1.51188 6.05339 0.0546875 9.96235 0.0546875C11.9631 0.0546875 14.5768 0.586676 16.1554 2.10169C18.1561 3.96943 17.9653 6.46168 17.9653 9.17367V15.5807C17.9653 17.5062 18.7633 18.3505 19.515 19.3913C19.781 19.7614 19.8388 20.2067 19.5035 20.4842C18.665 21.1839 17.1731 22.485 16.352 23.2136L16.3404 23.202" fill="#2B3D6B"/>
<path opacity="0.8" d="M65.4913 13.1806V12.2901C62.5191 12.2901 59.3792 12.9261 59.3792 16.4303C59.3792 18.2056 60.2986 19.4083 61.8772 19.4083C63.0337 19.4083 64.0688 18.6971 64.7222 17.5406C65.5317 16.1181 65.4913 14.7823 65.4913 13.1806ZM69.6373 23.2016C69.3655 23.4445 68.9723 23.4618 68.6658 23.2999C67.3012 22.1666 67.0583 21.6404 66.3066 20.559C64.0514 22.8605 62.4555 23.5486 59.5295 23.5486C56.0716 23.5486 53.377 21.4148 53.377 17.1416C53.377 13.8051 55.1869 11.5326 57.7601 10.4223C59.9921 9.4393 63.1089 9.26583 65.4913 8.99405V8.46206C65.4913 7.48482 65.5664 6.32832 64.994 5.48408C64.4909 4.72657 63.531 4.41432 62.6868 4.41432C61.1197 4.41432 59.7203 5.21808 59.3792 6.88344C59.3098 7.25352 59.038 7.61782 58.6679 7.63516L54.678 7.20726C54.3426 7.13209 53.9725 6.86031 54.0651 6.34567C54.9845 1.51151 59.3503 0.0543213 63.2592 0.0543213C65.26 0.0543213 67.8736 0.58631 69.4523 2.10132C71.453 3.96906 71.2622 6.46132 71.2622 9.17331V15.5803C71.2622 17.5059 72.0602 18.3501 72.8119 19.391C73.0779 19.761 73.1357 20.2063 72.8003 20.4839C71.9619 21.1835 70.47 22.4846 69.6489 23.2132L69.6373 23.2016" fill="#2B3D6B"/>
</g>
<defs>
<clipPath id="clip0">
<rect width="133" height="40.1426" fill="white"/>
</clipPath>
</defs>
</svg>
