<svg width="160" height="32" viewBox="0 0 160 32" fill="none" xmlns="http://www.w3.org/2000/svg">
<g clip-path="url(#clip0)">
<path fill-rule="evenodd" clip-rule="evenodd" d="M28.7502 26.0627H23.8672V9.18138H28.7502V26.0627Z" fill="#00A6FF"/>
<path fill-rule="evenodd" clip-rule="evenodd" d="M29.2084 4.3031C29.2084 5.18033 28.9189 5.87034 28.3399 6.37315C27.761 6.87595 27.0782 7.12735 26.2917 7.12735C25.5052 7.12735 24.8224 6.87595 24.2435 6.37315C23.6645 5.87034 23.375 5.18033 23.375 4.3031C23.375 3.42587 23.6645 2.73586 24.2435 2.23305C24.8224 1.73025 25.5052 1.47885 26.2917 1.47885C27.0782 1.47885 27.761 1.73025 28.3399 2.23305C28.9189 2.73586 29.2084 3.42587 29.2084 4.3031Z" fill="#00A6FF"/>
<path fill-rule="evenodd" clip-rule="evenodd" d="M42.8089 17.1085C42.8089 15.568 42.6068 14.4768 42.2027 13.8349C41.7985 13.1931 41.1048 12.8721 40.1216 12.8721C39.8158 12.8721 39.499 12.8882 39.1713 12.9203C38.8435 12.9524 38.5268 12.9898 38.2209 13.0326V26.0627H33.3379V9.75905C33.753 9.65207 34.2391 9.53974 34.7962 9.42206C35.3534 9.30438 35.9432 9.19741 36.5659 9.10112C37.1886 9.00484 37.8276 8.92996 38.4831 8.87647C39.1385 8.82298 39.783 8.79623 40.4166 8.79623C41.6619 8.79623 42.6724 8.95135 43.448 9.26159C44.2236 9.57183 44.8626 9.94091 45.3651 10.3688C46.0643 9.87672 46.8672 9.4916 47.7739 9.21345C48.6805 8.93531 49.5162 8.79623 50.2809 8.79623C51.6573 8.79623 52.7879 8.98345 53.6728 9.35787C54.5576 9.7323 55.2622 10.2618 55.7866 10.9465C56.3109 11.6312 56.6714 12.4442 56.868 13.3856C57.0647 14.3271 57.163 15.3754 57.163 16.5308V26.0627H52.28V17.1085C52.28 15.568 52.0779 14.4768 51.6737 13.8349C51.2695 13.1931 50.5758 12.8721 49.5927 12.8721C49.3305 12.8721 48.9646 12.9363 48.4948 13.0647C48.0251 13.1931 47.6373 13.3535 47.3314 13.5461C47.4844 14.0382 47.5827 14.5571 47.6264 15.1027C47.6701 15.6482 47.6919 16.2313 47.6919 16.8518V26.0627H42.8089V17.1085Z" fill="#00A6FF"/>
<path fill-rule="evenodd" clip-rule="evenodd" d="M77.1198 21.1844C77.4475 20.1146 77.6113 18.9272 77.6113 17.622C77.6113 16.2741 77.4092 15.0545 77.0051 13.9633C76.6009 12.8721 76.0164 11.9468 75.2518 11.1872C74.4871 10.4277 73.5476 9.83928 72.4334 9.42206C71.3192 9.00484 70.052 8.79623 68.6319 8.79623C68.042 8.79623 67.4248 8.82298 66.7803 8.87647C66.1358 8.92996 65.5022 8.99949 64.8795 9.08508C64.2568 9.17066 63.6615 9.27229 63.0934 9.38997C62.5254 9.50765 62.0229 9.63067 61.5859 9.75905V32H66.4689V25.6454C67.0151 25.8808 67.5832 26.0627 68.1731 26.191C68.763 26.3194 69.3965 26.3836 70.0738 26.3836C71.2973 26.3836 72.3788 26.1696 73.3182 25.7417C74.2577 25.3138 75.0442 24.7147 75.6778 23.9445C76.3114 23.1742 76.792 22.2542 77.1198 21.1844ZM71.6142 14.204C72.2915 15.092 72.6301 16.2741 72.6301 17.7504C72.6301 20.81 71.4722 22.3398 69.1563 22.3398C68.6538 22.3398 68.1568 22.2756 67.6652 22.1472C67.1736 22.0189 66.7749 21.8584 66.469 21.6658V13.0326C66.7093 12.9898 67.0152 12.9524 67.3866 12.9203C67.758 12.8882 68.1622 12.8722 68.5992 12.8722C69.9319 12.8722 70.9369 13.3161 71.6142 14.204Z" fill="#00A6FF"/>
<path fill-rule="evenodd" clip-rule="evenodd" d="M96.9137 21.2325C97.3069 20.1306 97.5035 18.9164 97.5035 17.5899C97.5035 16.2633 97.296 15.0545 96.8809 13.9633C96.4658 12.8721 95.8868 11.9414 95.144 11.1711C94.4012 10.4009 93.5109 9.8018 92.4731 9.37388C91.4353 8.94597 90.2938 8.73201 89.0484 8.73201C87.8249 8.73201 86.6943 8.94597 85.6566 9.37388C84.6188 9.8018 83.723 10.4009 82.9693 11.1711C82.2155 11.9414 81.6256 12.8721 81.1996 13.9633C80.7736 15.0545 80.5605 16.2633 80.5605 17.5899C80.5605 18.9164 80.7681 20.1306 81.1832 21.2325C81.5983 22.3344 82.1773 23.2758 82.9201 24.0568C83.6629 24.8377 84.5532 25.4421 85.591 25.8701C86.6288 26.298 87.7813 26.5119 89.0484 26.5119C90.3375 26.5119 91.5008 26.298 92.5386 25.8701C93.5764 25.4421 94.4667 24.8377 95.2095 24.0568C95.9524 23.2758 96.5204 22.3344 96.9137 21.2325ZM91.6209 14.1078C92.2217 14.9529 92.5221 16.1136 92.5221 17.5899C92.5221 19.0662 92.2217 20.2377 91.6209 21.1042C91.0201 21.9707 90.1625 22.404 89.0483 22.404C87.934 22.404 87.0711 21.9707 86.4593 21.1042C85.8476 20.2377 85.5417 19.0662 85.5417 17.5899C85.5417 16.1136 85.8476 14.9529 86.4593 14.1078C87.0711 13.2626 87.934 12.8401 89.0483 12.8401C90.1625 12.8401 91.0201 13.2626 91.6209 14.1078Z" fill="#00A6FF"/>
<path fill-rule="evenodd" clip-rule="evenodd" d="M111.662 13.4177C111.225 13.3108 110.712 13.1984 110.122 13.0808C109.532 12.9631 108.898 12.9042 108.221 12.9042C107.915 12.9042 107.549 12.931 107.123 12.9845C106.697 13.038 106.375 13.0968 106.156 13.161V26.0627H101.273V10.08C102.147 9.78045 103.18 9.49696 104.37 9.22951C105.561 8.96206 106.888 8.82834 108.352 8.82834C108.614 8.82834 108.931 8.84439 109.303 8.87648C109.674 8.90857 110.045 8.95136 110.417 9.00485C110.788 9.05834 111.16 9.12253 111.531 9.19742C111.902 9.2723 112.219 9.36323 112.481 9.47021L111.662 13.4177Z" fill="#00A6FF"/>
<path fill-rule="evenodd" clip-rule="evenodd" d="M114.939 4.97707L119.822 4.20682V9.18135H125.689V13.161H119.822V19.0983C119.822 20.1039 120.003 20.9063 120.363 21.5053C120.724 22.1044 121.45 22.404 122.543 22.404C123.067 22.404 123.608 22.3558 124.165 22.2595C124.722 22.1633 125.23 22.0295 125.689 21.8584L126.377 25.5812C125.787 25.8166 125.131 26.0199 124.41 26.191C123.69 26.3622 122.805 26.4478 121.756 26.4478C120.423 26.4478 119.32 26.2713 118.446 25.9182C117.572 25.5652 116.873 25.0731 116.349 24.4419C115.824 23.8107 115.458 23.0458 115.251 22.1472C115.043 21.2486 114.939 20.2537 114.939 19.1625V4.97707Z" fill="#00A6FF"/>
<path fill-rule="evenodd" clip-rule="evenodd" d="M159.18 13.4177C158.743 13.3108 158.229 13.1984 157.639 13.0808C157.05 12.9631 156.416 12.9042 155.739 12.9042C155.433 12.9042 155.067 12.931 154.641 12.9845C154.215 13.038 153.893 13.0968 153.674 13.161V26.0627H148.791V10.08C149.665 9.78045 150.697 9.49696 151.888 9.22951C153.079 8.96206 154.406 8.82834 155.87 8.82834C156.132 8.82834 156.449 8.84439 156.82 8.87648C157.192 8.90857 157.563 8.95136 157.934 9.00485C158.306 9.05834 158.677 9.12253 159.049 9.19742C159.42 9.2723 159.737 9.36323 159.999 9.47021L159.18 13.4177Z" fill="#00A6FF"/>
<path fill-rule="evenodd" clip-rule="evenodd" d="M129.539 13.8189C129.069 14.9422 128.834 16.2526 128.834 17.7503C128.834 18.9913 129.014 20.1467 129.375 21.2165C129.735 22.2863 130.292 23.2116 131.046 23.9926C131.8 24.7735 132.75 25.3887 133.897 25.838C135.044 26.2873 136.393 26.5119 137.945 26.5119C138.556 26.5119 139.168 26.4798 139.78 26.4157C140.391 26.3515 140.965 26.2712 141.5 26.175C142.036 26.0787 142.522 25.9663 142.959 25.838C143.396 25.7096 143.745 25.5812 144.007 25.4528L143.352 21.5695C142.806 21.8049 142.101 22.0028 141.238 22.1632C140.375 22.3237 139.496 22.4039 138.6 22.4039C137.202 22.4039 136.087 22.1151 135.257 21.5374C134.427 20.9597 133.957 20.1788 133.848 19.1946H144.925C144.947 18.9378 144.969 18.6436 144.99 18.312C145.012 17.9804 145.023 17.6755 145.023 17.3973C145.023 14.5517 144.313 12.3961 142.893 10.9304C141.473 9.46481 139.539 8.73201 137.092 8.73201C136.044 8.73201 135.022 8.92457 134.028 9.3097C133.034 9.69482 132.155 10.2618 131.39 11.0107C130.626 11.7595 130.008 12.6956 129.539 13.8189ZM140.091 14.7335C140.211 15.1187 140.282 15.5145 140.304 15.921H133.848C133.914 15.5145 134.017 15.1133 134.159 14.7175C134.301 14.3217 134.504 13.974 134.766 13.6744C135.028 13.3749 135.356 13.1342 135.749 12.9523C136.142 12.7705 136.612 12.6795 137.158 12.6795C137.726 12.6795 138.201 12.7758 138.584 12.9684C138.966 13.1609 139.283 13.407 139.534 13.7065C139.785 14.0061 139.971 14.3484 140.091 14.7335Z" fill="#00A6FF"/>
<path d="M19.1361 16.4404C18.809 15.567 18.2841 14.7769 17.6006 14.1289C16.8415 13.4215 15.9708 12.8375 15.0218 12.3994C13.987 11.9056 12.7685 11.4064 11.3665 10.9018C10.6905 10.6739 10.0771 10.4541 9.51799 10.2385C9.00407 10.0429 8.50962 9.80178 8.04084 9.51816C7.65147 9.28958 7.31363 8.9864 7.04774 8.62694C6.80106 8.27472 6.67141 7.85703 6.67636 7.43051C6.63038 6.70387 6.99745 6.01134 7.63192 5.62773C8.26617 5.23164 9.30935 5.03494 10.7615 5.03766C11.8906 5.01338 13.0167 5.16027 14.0996 5.47309C14.9614 5.74139 15.7988 6.07896 16.6033 6.48232C16.3736 6.19856 16.1241 5.93069 15.8564 5.68063C13.4289 3.43927 9.86434 2.8268 6.79764 4.12415C3.73095 5.4215 1.75391 8.37834 1.77341 11.6384C1.77341 11.7686 1.77341 11.8785 1.77341 12.0046C2.15128 12.3969 2.57092 12.7489 3.02523 13.0545C3.73733 13.6599 4.53744 14.1591 5.39951 14.5358C6.27995 14.9428 6.98515 15.3497 7.86559 15.6427C9.89075 16.302 11.3164 16.9165 12.1426 17.4862C12.9113 17.9407 13.3847 18.7502 13.3945 19.6268C13.3992 20.003 13.3327 20.3769 13.1983 20.7296C13.0545 21.0736 12.8109 21.3692 12.4973 21.5801C12.0919 21.8511 11.6374 22.0445 11.1579 22.1498C10.4625 22.3024 9.75072 22.3721 9.03813 22.3574C7.57428 22.3871 6.11342 22.2159 4.69849 21.8487C3.66334 21.5663 2.66184 21.1775 1.71082 20.6889L0 25.3932C0.43567 25.6322 0.884188 25.8482 1.34362 26.0403C1.96199 26.2969 2.59775 26.5118 3.24638 26.6832C4.08422 26.9067 4.93578 27.078 5.79592 27.196C6.86588 27.3417 7.9453 27.411 9.02561 27.4035C12.578 27.4035 15.236 26.7253 16.9997 25.3688C18.7634 24.0123 19.6452 22.1132 19.6452 19.6715C19.6727 18.5736 19.5003 17.4796 19.1361 16.4404Z" fill="url(#paint0_linear)"/>
<path d="M1.16419 11.0279C1.63827 11.796 2.25696 12.4698 2.98767 13.0138C3.69978 13.6192 4.49989 14.1184 5.36195 14.4951C6.2424 14.9021 6.9768 15.3416 7.86559 15.6427C9.89076 16.302 11.3164 16.9165 12.1426 17.4862C12.9113 17.9407 13.3847 18.7501 13.3945 19.6267C13.3992 20.003 13.3327 20.3768 13.1983 20.7296C13.0545 21.0736 12.8109 21.3692 12.4973 21.5801C12.0919 21.8511 11.6374 22.0444 11.1579 22.1498C10.4625 22.3024 9.75072 22.3721 9.03813 22.3574C7.57428 22.3871 6.11342 22.2159 4.69849 21.8487C3.66334 21.5662 2.66184 21.1775 1.71082 20.6889L0 25.3932C0.350509 25.5845 0.834546 25.8286 1.34362 26.0403C1.96199 26.2969 2.59775 26.5117 3.24638 26.6832C4.08422 26.9067 4.93578 27.078 5.79592 27.196C6.59945 27.307 7.40895 27.3723 8.22027 27.3913C11.8711 26.5905 14.7118 23.7931 15.4975 20.225C16.3863 15.1137 13.3277 11.5814 9.87267 10.3768C9.76001 10.3361 9.65152 10.2954 9.53468 10.2588" fill="url(#paint1_linear)"/>
<path d="M4.68597 21.8487C3.65511 21.5654 2.65785 21.1767 1.71082 20.6889L0 25.3932C0.64913 25.4711 1.30312 25.5037 1.95701 25.4909C5.21994 25.4982 8.37269 24.3401 10.8199 22.2353C10.2275 22.3357 9.62681 22.382 9.02561 22.3737C7.56097 22.3981 6.1001 22.2214 4.68597 21.8487Z" fill="url(#paint2_linear)"/>
<path d="M10.1439 3.47494C5.52294 3.47942 1.77804 7.13167 1.77344 11.6383C1.77344 11.7685 1.77344 11.8784 1.77344 12.0046C2.08679 12.4156 2.44496 12.7922 2.84166 13.1278C5.58731 15.4596 9.70579 15.8218 12.1343 17.4902C12.4325 17.6863 12.6948 17.9298 12.9104 18.2105C12.9974 17.735 13.0421 17.253 13.044 16.7699C13.0388 14.2806 11.8716 11.929 9.8727 10.3809C7.38993 9.46522 6.81827 8.42343 6.92258 7.43048C7.26892 4.07722 13.3486 4.80566 16.6075 6.4538L15.944 5.52596C14.3457 4.15235 12.2735 3.41959 10.1439 3.47494Z" fill="url(#paint3_linear)"/>
<path d="M15.0834 0.56119C12.7133 -0.118414 8.96204 -0.252707 6.25394 0.56119C3.54584 1.37509 0.570681 3.46273 0.470536 7.6421C0.369794 9.20167 0.835119 10.7461 1.78495 12.0046C1.5972 8.48345 3.75555 5.24484 7.13124 3.98247C10.5069 2.72011 14.3322 3.72109 16.6065 6.46194L18.359 1.81459C17.3138 1.28902 16.2162 0.869037 15.0834 0.56119Z" fill="url(#paint4_linear)"/>
</g>
<defs>
<linearGradient id="paint0_linear" x1="2.29917" y1="25.5011" x2="18.8065" y2="25.5011" gradientUnits="userSpaceOnUse">
<stop stop-color="#48D6ED"/>
<stop offset="1" stop-color="#02A0F5"/>
</linearGradient>
<linearGradient id="paint1_linear" x1="-1.28937" y1="28.142" x2="15.7354" y2="28.142" gradientUnits="userSpaceOnUse">
<stop offset="0.02" stop-color="#48D6ED"/>
<stop offset="1" stop-color="#02A0F5"/>
</linearGradient>
<linearGradient id="paint2_linear" x1="0" y1="25.4922" x2="10.8199" y2="25.4922" gradientUnits="userSpaceOnUse">
<stop stop-color="#48D6ED"/>
<stop offset="1" stop-color="#02A0F5"/>
</linearGradient>
<linearGradient id="paint3_linear" x1="-0.847036" y1="19.7253" x2="17.0373" y2="19.7253" gradientUnits="userSpaceOnUse">
<stop stop-color="#02A0F5"/>
<stop offset="1" stop-color="#48D6ED"/>
</linearGradient>
<linearGradient id="paint4_linear" x1="-0.00112548" y1="6.66667" x2="84.7446" y2="6.66667" gradientUnits="userSpaceOnUse">
<stop stop-color="#48D6ED"/>
<stop offset="0.247872" stop-color="#16B0F3"/>
<stop offset="0.508287" stop-color="#02A0F5"/>
</linearGradient>
<clipPath id="clip0">
<rect width="160" height="32" fill="white"/>
</clipPath>
</defs>
</svg>
