<svg width="178" height="39" viewBox="0 0 178 39" fill="none" xmlns="http://www.w3.org/2000/svg">
<g clip-path="url(#clip0)">
<path opacity="0.8" d="M62.831 21.8964L61.7701 24.9024H61.6816C61.5048 24.2246 61.1807 23.1931 60.6502 21.9554L54.9624 7.66233H49.3926V30.4428H53.0764V16.3855C53.0764 15.5014 53.0764 14.4994 53.0469 13.2617C53.0174 12.6428 52.9585 12.1713 52.929 11.8176H53.0174C53.1942 12.7017 53.4005 13.3501 53.5479 13.7627L60.385 30.3838H62.9783L69.7565 13.6153C69.9038 13.2322 70.0512 12.466 70.1985 11.8176H70.2869C70.1985 13.4974 70.1396 15.0004 70.1101 15.914V30.3544H74.0297V7.60338H68.6661L62.831 21.8964ZM77.7429 14.0279H81.574V30.3544H77.7429V14.0279ZM79.6879 7.13186C79.0396 7.13186 78.5091 7.36762 78.0671 7.78021C77.625 8.19279 77.3893 8.72325 77.3893 9.3716C77.3893 9.99047 77.625 10.5209 78.0671 10.9335C78.5091 11.3461 79.0396 11.5524 79.6879 11.5524C80.3363 11.5524 80.8962 11.3166 81.3088 10.9335C81.7509 10.5209 81.9866 9.99047 81.9866 9.3716C81.9866 8.75272 81.7509 8.22226 81.3088 7.78021C80.9257 7.36762 80.3658 7.13186 79.6879 7.13186ZM95.1598 13.8805C94.4525 13.7332 93.7158 13.6448 93.0085 13.6448C91.2697 13.6448 89.6783 14.0279 88.3522 14.7941C87.026 15.5603 85.9651 16.6213 85.2873 17.9474C84.58 19.3031 84.2263 20.865 84.2263 22.6627C84.2263 24.2246 84.58 25.6097 85.2578 26.8769C85.9356 28.1146 86.8787 29.1166 88.1459 29.7944C89.3542 30.4723 90.7687 30.8259 92.3601 30.8259C94.1873 30.8259 95.7492 30.4428 96.9869 29.7355L97.0164 29.706V26.1696L96.8691 26.2875C96.3091 26.7001 95.6608 27.0537 95.0124 27.26C94.3346 27.4958 93.7158 27.6136 93.1853 27.6136C91.6528 27.6136 90.4446 27.1716 89.5899 26.1991C88.7058 25.256 88.2638 23.9593 88.2638 22.3385C88.2638 20.6587 88.7058 19.3325 89.6194 18.36C90.533 17.3875 91.7412 16.8865 93.2148 16.8865C94.4525 16.8865 95.7197 17.2991 96.8691 18.1242L97.0164 18.2421V14.4994L96.9869 14.4699C96.486 14.2636 95.926 14.0279 95.1598 13.8805ZM107.803 13.7627C106.859 13.7627 105.975 14.0574 105.209 14.6762C104.561 15.2067 104.119 15.9729 103.736 16.8865H103.706V14.0279H99.875V30.3544H103.706V22.0143C103.706 20.5997 104.001 19.4209 104.649 18.5663C105.298 17.6822 106.123 17.2401 107.125 17.2401C107.478 17.2401 107.832 17.3286 108.274 17.3875C108.687 17.5054 108.981 17.6233 109.188 17.7706L109.335 17.8885V14.0574L109.247 14.0279C108.981 13.8511 108.451 13.7627 107.803 13.7627ZM118.235 13.6742C115.553 13.6742 113.402 14.4699 111.899 16.0319C110.366 17.5938 109.63 19.7451 109.63 22.4564C109.63 24.9908 110.396 27.0537 111.869 28.5567C113.343 30.0302 115.347 30.7964 117.852 30.7964C120.475 30.7964 122.567 30.0007 124.07 28.4093C125.603 26.818 126.339 24.6961 126.339 22.0733C126.339 19.4799 125.632 17.417 124.188 15.914C122.803 14.411 120.769 13.6742 118.235 13.6742ZM121.3 26.2285C120.593 27.1421 119.473 27.5842 118.088 27.5842C116.703 27.5842 115.583 27.1421 114.787 26.1696C113.991 25.256 113.608 23.9299 113.608 22.2501C113.608 20.5113 114.021 19.1852 114.787 18.2421C115.583 17.2991 116.673 16.8276 118.058 16.8276C119.414 16.8276 120.475 17.2696 121.241 18.1832C122.007 19.0968 122.42 20.4229 122.42 22.1617C122.361 23.9299 122.037 25.315 121.3 26.2285ZM134.886 20.806C133.677 20.305 132.911 19.9219 132.557 19.5978C132.263 19.3031 132.115 18.8905 132.115 18.36C132.115 17.918 132.292 17.4759 132.734 17.1812C133.176 16.8865 133.677 16.7391 134.414 16.7391C135.062 16.7391 135.74 16.857 136.389 17.0338C137.037 17.2107 137.626 17.4759 138.098 17.8295L138.245 17.9474V14.3521L138.157 14.3226C137.715 14.1458 137.125 13.9689 136.418 13.8216C135.711 13.7037 135.062 13.6448 134.532 13.6448C132.705 13.6448 131.202 14.0868 130.023 15.0593C128.844 15.9729 128.284 17.2107 128.284 18.6547C128.284 19.4209 128.402 20.0987 128.667 20.6587C128.933 21.2186 129.316 21.7491 129.846 22.1911C130.377 22.6037 131.143 23.0752 132.204 23.5173C133.088 23.9004 133.766 24.1951 134.178 24.4309C134.591 24.6666 134.856 24.9319 135.062 25.1382C135.21 25.3739 135.298 25.6686 135.298 26.0517C135.298 27.1421 134.473 27.6726 132.793 27.6726C132.145 27.6726 131.467 27.5547 130.671 27.2895C129.876 27.0242 129.139 26.6411 128.52 26.1991L128.373 26.0812V29.8239L128.461 29.8534C129.021 30.1186 129.699 30.2954 130.524 30.5017C131.349 30.6491 132.086 30.767 132.734 30.767C134.709 30.767 136.33 30.3249 137.479 29.3524C138.658 28.4093 139.277 27.2011 139.277 25.6391C139.277 24.5487 138.982 23.5762 138.334 22.8395C137.479 22.1322 136.418 21.3954 134.886 20.806ZM149.385 13.6742C146.703 13.6742 144.552 14.4699 143.049 16.0319C141.546 17.5938 140.78 19.7451 140.78 22.4564C140.78 24.9908 141.546 27.0537 143.019 28.5567C144.493 30.0302 146.497 30.7964 149.002 30.7964C151.625 30.7964 153.717 30.0007 155.22 28.4093C156.753 26.818 157.489 24.6961 157.489 22.0733C157.489 19.4799 156.782 17.417 155.338 15.914C153.953 14.411 151.919 13.6742 149.385 13.6742ZM152.42 26.2285C151.713 27.1421 150.593 27.5842 149.208 27.5842C147.794 27.5842 146.703 27.1421 145.907 26.1696C145.112 25.256 144.729 23.9299 144.729 22.2501C144.729 20.5113 145.141 19.1852 145.907 18.2421C146.703 17.2991 147.794 16.8276 149.179 16.8276C150.505 16.8276 151.595 17.2696 152.361 18.1832C153.128 19.0968 153.54 20.4229 153.54 22.1617C153.54 23.9299 153.157 25.315 152.42 26.2285ZM177.971 17.1812V14.0279H174.11V9.19478L173.993 9.22425L170.338 10.3146L170.25 10.3441V14.0279H164.474V11.965C164.474 11.0219 164.709 10.2852 165.122 9.81365C165.535 9.34213 166.154 9.10636 166.92 9.10636C167.45 9.10636 168.01 9.22425 168.629 9.48948L168.776 9.57789V6.24776L168.688 6.21829C168.157 6.04146 167.45 5.92358 166.537 5.92358C165.387 5.92358 164.385 6.18882 163.472 6.63087C162.558 7.13186 161.88 7.80968 161.379 8.72325C160.878 9.60736 160.613 10.6093 160.613 11.7587V14.0279H157.931V17.1517H160.613V30.3544H164.474V17.1812H170.25V25.5802C170.25 29.0282 171.871 30.767 175.112 30.767C175.643 30.767 176.203 30.6786 176.733 30.5901C177.293 30.4723 177.706 30.3249 177.942 30.207L177.971 30.1776V27.0242L177.824 27.1421C177.588 27.2895 177.382 27.4074 177.028 27.4958C176.733 27.5842 176.468 27.6136 176.262 27.6136C175.496 27.6136 174.965 27.4368 174.582 26.9948C174.228 26.5822 174.051 25.9044 174.051 24.9024V17.1812H177.971Z" fill="#2B3D6B"/>
<path d="M0 0H18.0652V18.0652H0V0Z" fill="#2B3D6B"/>
<path opacity="0.8" d="M19.9512 6.10352e-05H38.0164V18.0653H19.9512V6.10352e-05Z" fill="#2B3D6B"/>
<path opacity="0.72" d="M0 19.9514H18.0652V38.0166H0V19.9514Z" fill="#2B3D6B"/>
<path opacity="0.4" d="M19.9512 19.9514H38.0164V38.0166H19.9512V19.9514Z" fill="#2B3D6B"/>
</g>
<defs>
<clipPath id="clip0">
<rect width="178" height="38.0166" fill="white"/>
</clipPath>
</defs>
</svg>
