<svg width="29" height="40" viewBox="0 0 29 40" fill="none" xmlns="http://www.w3.org/2000/svg">
<path d="M27.9318 23.9977C27.4544 22.723 26.6882 21.5698 25.6904 20.6238C24.5824 19.5912 23.3116 18.7389 21.9264 18.0993C20.4159 17.3786 18.6375 16.65 16.591 15.9134C15.6043 15.5808 14.709 15.26 13.8928 14.9452C13.1427 14.6598 12.421 14.3078 11.7367 13.8938C11.1684 13.5602 10.6752 13.1177 10.2871 12.593C9.92708 12.0789 9.73784 11.4692 9.74507 10.8466C9.67795 9.786 10.2137 8.77515 11.1398 8.21523C12.0656 7.63707 13.5883 7.34997 15.7078 7.35393C17.356 7.31849 18.9997 7.53291 20.5804 7.98951C21.8382 8.38113 23.0605 8.87386 24.2348 9.46262C23.8996 9.04844 23.5353 8.65744 23.1445 8.29245C19.6014 5.02087 14.3984 4.12688 9.92209 6.02054C5.44583 7.91421 2.56008 12.2301 2.58853 16.9886C2.58853 17.1786 2.58853 17.339 2.58853 17.5232C3.14009 18.0958 3.75261 18.6095 4.41574 19.0557C5.45515 19.9393 6.62302 20.6679 7.88133 21.2178C9.16646 21.8118 10.1958 22.4058 11.4809 22.8335C14.4369 23.7958 16.5179 24.6927 17.7239 25.5243C18.8458 26.1877 19.5368 27.3692 19.5511 28.6487C19.5579 29.1979 19.4609 29.7436 19.2648 30.2585C19.0549 30.7606 18.6993 31.192 18.2416 31.4999C17.6498 31.8955 16.9863 32.1777 16.2865 32.3315C15.2715 32.5543 14.2325 32.656 13.1924 32.6345C11.0557 32.6779 8.92337 32.428 6.85809 31.892C5.34714 31.4797 3.88532 30.9122 2.49717 30.1991L0 37.0657C0.63592 37.4145 1.29059 37.7298 1.9612 38.0101C2.8638 38.3848 3.79177 38.6983 4.73854 38.9487C5.96147 39.2749 7.20445 39.5248 8.45994 39.6971C10.0217 39.9097 11.5973 40.0109 13.1741 40C18.3593 40 22.2391 39.01 24.8134 37.03C27.3877 35.0501 28.6749 32.2781 28.6749 28.7141C28.715 27.1115 28.4634 25.5147 27.9318 23.9977Z" fill="url(#paint0_linear)"/>
<path d="M1.6993 16.0963C2.39128 17.2175 3.29434 18.201 4.36092 18.995C5.40034 19.8786 6.5682 20.6072 7.82651 21.1571C9.11164 21.7511 10.1836 22.3927 11.4809 22.8322C14.4369 23.7945 16.5179 24.6914 17.7239 25.523C18.8458 26.1864 19.5368 27.3679 19.5511 28.6475C19.5579 29.1966 19.4609 29.7423 19.2648 30.2572C19.0549 30.7593 18.6993 31.1908 18.2416 31.4986C17.6498 31.8942 16.9863 32.1764 16.2865 32.3302C15.2715 32.553 14.2325 32.6547 13.1924 32.6332C11.0557 32.6766 8.92337 32.4267 6.8581 31.8907C5.34714 31.4784 3.88532 30.9109 2.49717 30.1978L0 37.0644C0.511616 37.3436 1.21813 37.7 1.9612 38.0089C2.8638 38.3835 3.79177 38.6971 4.73854 38.9474C5.96147 39.2736 7.20445 39.5236 8.45994 39.6958C9.63281 39.8579 10.8144 39.9531 11.9986 39.9809C17.3276 38.8119 21.4739 34.7288 22.6208 29.5206C23.9181 22.06 19.4536 16.9041 14.4105 15.1459C14.2461 15.0865 14.0877 15.0271 13.9172 14.9736" fill="url(#paint1_linear)"/>
<path d="M6.83982 31.8902C5.33514 31.4767 3.8795 30.9093 2.49717 30.1973L0 37.0639C0.947495 37.1775 1.90209 37.2251 2.85652 37.2064C7.61921 37.2172 12.2211 35.5268 15.7931 32.4545C14.9284 32.601 14.0517 32.6686 13.1741 32.6564C11.0363 32.6921 8.90393 32.4342 6.83982 31.8902Z" fill="url(#paint2_linear)"/>
<path d="M14.8058 5.07165C8.06081 5.0782 2.59461 10.4092 2.58789 16.9872C2.58789 17.1773 2.58789 17.3377 2.58789 17.5218C3.04527 18.1217 3.56807 18.6714 4.1471 19.1613C8.15476 22.5649 14.1663 23.0935 17.711 25.5289C18.1462 25.8152 18.5292 26.1705 18.8439 26.5803C18.9708 25.8862 19.036 25.1826 19.0388 24.4775C19.0313 20.844 17.3276 17.4115 14.4099 15.1518C10.7859 13.8153 9.95151 12.2947 10.1038 10.8453C10.6093 5.95076 19.4834 7.01402 24.2402 9.41971L23.2718 8.06539C20.9388 6.06042 17.9142 4.99086 14.8058 5.07165Z" fill="url(#paint3_linear)"/>
<path d="M22.0172 0.819135C18.5577 -0.172841 13.0822 -0.36886 9.12935 0.819135C5.1765 2.00713 0.833857 5.05434 0.687681 11.1547C0.540634 13.4311 1.21984 15.6854 2.60624 17.5223C2.3322 12.3828 5.48261 7.65557 10.4099 5.81297C15.3372 3.97037 20.9206 5.43145 24.2403 9.4321L26.7984 2.64865C25.2727 1.8815 23.6707 1.26848 22.0172 0.819135Z" fill="url(#paint4_linear)"/>
<defs>
<linearGradient id="paint0_linear" x1="3.35596" y1="37.2231" x2="27.4507" y2="37.2231" gradientUnits="userSpaceOnUse">
<stop stop-color="#48D6ED"/>
<stop offset="1" stop-color="#02A0F5"/>
</linearGradient>
<linearGradient id="paint1_linear" x1="-1.88202" y1="41.0766" x2="22.9679" y2="41.0766" gradientUnits="userSpaceOnUse">
<stop offset="0.02" stop-color="#48D6ED"/>
<stop offset="1" stop-color="#02A0F5"/>
</linearGradient>
<linearGradient id="paint2_linear" x1="0" y1="37.2084" x2="15.7931" y2="37.2084" gradientUnits="userSpaceOnUse">
<stop stop-color="#48D6ED"/>
<stop offset="1" stop-color="#02A0F5"/>
</linearGradient>
<linearGradient id="paint3_linear" x1="-1.23705" y1="28.7913" x2="24.8676" y2="28.7913" gradientUnits="userSpaceOnUse">
<stop stop-color="#02A0F5"/>
<stop offset="1" stop-color="#48D6ED"/>
</linearGradient>
<linearGradient id="paint4_linear" x1="-0.000774076" y1="9.73092" x2="123.697" y2="9.73092" gradientUnits="userSpaceOnUse">
<stop stop-color="#48D6ED"/>
<stop offset="0.247872" stop-color="#16B0F3"/>
<stop offset="0.508287" stop-color="#02A0F5"/>
</linearGradient>
</defs>
</svg>
