<svg width="54" height="44" viewBox="0 0 54 44" fill="none" xmlns="http://www.w3.org/2000/svg">
<g clip-path="url(#clip0)">
<g opacity="0.72">
<path fill-rule="evenodd" clip-rule="evenodd" d="M53.9399 5.13289C51.9743 6.00031 49.8654 6.5892 47.6531 6.85181C49.9132 5.49896 51.648 3.3503 52.4597 0.795797C50.3429 2.05316 48.0033 2.96036 45.5124 3.45376C43.515 1.32898 40.674 0 37.5226 0C31.4825 0 26.5804 4.90211 26.5804 10.9422C26.5804 11.8017 26.6759 12.6373 26.8669 13.4331C17.771 12.9794 9.70953 8.61848 4.31403 1.99745C3.37499 3.61292 2.83385 5.491 2.83385 7.49641C2.83385 11.2924 4.76763 14.6427 7.70412 16.6003C5.91358 16.5446 4.22649 16.0512 2.74631 15.2316C2.74631 15.2793 2.74631 15.3191 2.74631 15.3668C2.74631 20.6668 6.51839 25.0915 11.5239 26.0942C10.6088 26.3409 9.63791 26.4762 8.64316 26.4762C7.9349 26.4762 7.25052 26.4045 6.58205 26.2772C7.97469 30.6223 12.0173 33.7895 16.8001 33.8771C13.0519 36.8136 8.34076 38.5643 3.20787 38.5643C2.32454 38.5643 1.45712 38.5086 0.597656 38.4131C5.4361 41.5167 11.1897 43.3311 17.3731 43.3311C37.4988 43.3311 48.5046 26.6592 48.5046 12.1996C48.5046 11.7221 48.4967 11.2526 48.4728 10.783C50.6135 9.2392 52.4677 7.31337 53.932 5.11697L53.9399 5.13289Z" fill="#2B3D6B"/>
</g>
</g>
<defs>
<clipPath id="clip0">
<rect width="53.3286" height="43.3391" fill="white" transform="translate(0.613281)"/>
</clipPath>
</defs>
</svg>
