<svg width="181" height="41" viewBox="0 0 181 41" fill="none" xmlns="http://www.w3.org/2000/svg">
<g clip-path="url(#clip0)">
<path opacity="0.72" d="M56.5001 6.32003C55.8349 3.84904 53.8866 1.90076 51.4156 1.23549C46.9013 0 28.8441 0 28.8441 0C28.8441 0 10.7868 0 6.27251 1.18798C3.84904 1.85324 1.85324 3.84904 1.18798 6.32003C0 10.8343 0 20.1956 0 20.1956C0 20.1956 0 29.6044 1.18798 34.0711C1.85324 36.5421 3.80152 38.4904 6.27251 39.1557C10.8343 40.3912 28.8441 40.3912 28.8441 40.3912C28.8441 40.3912 46.9013 40.3912 51.4156 39.2032C53.8866 38.5379 55.8349 36.5897 56.5001 34.1187C57.6881 29.6044 57.6881 20.2431 57.6881 20.2431C57.6881 20.2431 57.7356 10.8343 56.5001 6.32003Z" fill="#2B3D6B"/>
<path d="M23.0938 28.844L38.1098 20.1956L23.0938 11.5471V28.844Z" fill="white"/>
<g opacity="0.88">
<path d="M83.7749 36.7797C82.6345 36.0194 81.8266 34.8314 81.3515 33.1683C80.8763 31.5526 80.6387 29.3667 80.6387 26.7057V23.0467C80.6387 20.3381 80.9238 18.1523 81.4465 16.4891C82.0167 14.8259 82.8721 13.6379 84.0125 12.8776C85.2005 12.1173 86.7211 11.7372 88.6219 11.7372C90.4751 11.7372 91.9957 12.1173 93.1362 12.8776C94.2766 13.6379 95.0845 14.8734 95.6072 16.4891C96.1299 18.1047 96.415 20.2906 96.415 23.0467V26.7057C96.415 29.4143 96.1774 31.5526 95.6547 33.2158C95.132 34.8314 94.3242 36.0669 93.1837 36.8272C92.0432 37.5875 90.4751 37.9677 88.5268 37.9677C86.531 37.9202 84.9154 37.54 83.7749 36.7797ZM90.19 32.7881C90.5226 31.9803 90.6652 30.6022 90.6652 28.749V20.8608C90.6652 19.0551 90.5226 17.7246 90.19 16.8692C89.8574 16.0139 89.3347 15.6337 88.5268 15.6337C87.7665 15.6337 87.1963 16.0614 86.9112 16.8692C86.5785 17.7246 86.436 19.0551 86.436 20.8608V28.749C86.436 30.6022 86.5785 31.9803 86.9112 32.7881C87.1963 33.5959 87.7665 34.0236 88.5743 34.0236C89.3347 34.0236 89.8574 33.6435 90.19 32.7881Z" fill="#2B3D6B"/>
<path d="M171.497 26.7532V28.0362C171.497 29.6519 171.544 30.8874 171.639 31.6952C171.734 32.503 171.924 33.1208 172.257 33.4534C172.542 33.8335 173.017 34.0236 173.682 34.0236C174.538 34.0236 175.108 33.691 175.441 33.0257C175.773 32.3604 175.916 31.2675 175.963 29.6994L180.858 29.9845C180.905 30.2221 180.905 30.5072 180.905 30.8874C180.905 33.2158 180.288 34.974 179.005 36.1145C177.722 37.2549 175.916 37.8251 173.587 37.8251C170.784 37.8251 168.836 36.9223 167.695 35.1641C166.555 33.4059 165.984 30.6973 165.984 26.9908V22.5715C165.984 18.77 166.555 16.0139 167.743 14.2557C168.931 12.4975 170.926 11.6422 173.73 11.6422C175.678 11.6422 177.199 12.0223 178.244 12.7351C179.29 13.4479 180.003 14.5883 180.43 16.0614C180.858 17.582 181.048 19.6729 181.048 22.3339V26.6582H171.497V26.7532ZM172.209 16.1089C171.924 16.4891 171.734 17.0593 171.639 17.8671C171.544 18.675 171.497 19.9105 171.497 21.5736V23.3794H175.678V21.5736C175.678 19.958 175.631 18.7225 175.536 17.8671C175.441 17.0118 175.203 16.4416 174.918 16.1089C174.633 15.7763 174.158 15.5862 173.587 15.5862C172.922 15.5387 172.494 15.7288 172.209 16.1089Z" fill="#2B3D6B"/>
<path d="M69.9001 26.278L63.4375 2.85114H69.0923L71.3732 13.4479C71.9434 16.0614 72.3711 18.2948 72.6562 20.1481H72.7987C72.9888 18.8175 73.4165 16.6317 74.0818 13.4954L76.4577 2.85114H82.1125L75.5549 26.278V37.4925H69.9476V26.278H69.9001Z" fill="#2B3D6B"/>
<path d="M114.805 12.2124V37.54H110.338L109.863 34.4513H109.72C108.532 36.7797 106.679 37.9677 104.256 37.9677C102.593 37.9677 101.357 37.3975 100.549 36.3046C99.7415 35.2116 99.3613 33.5009 99.3613 31.125V12.2124H105.064V30.7923C105.064 31.9328 105.206 32.7406 105.444 33.2158C105.681 33.691 106.109 33.9286 106.679 33.9286C107.154 33.9286 107.63 33.786 108.105 33.4534C108.58 33.1683 108.913 32.7881 109.103 32.313V12.2124H114.805Z" fill="#2B3D6B"/>
<path d="M144.03 12.2124V37.54H139.563L139.088 34.4513H138.945C137.757 36.7797 135.904 37.9677 133.48 37.9677C131.817 37.9677 130.582 37.3975 129.774 36.3046C128.966 35.2116 128.586 33.5009 128.586 31.125V12.2124H134.288V30.7923C134.288 31.9328 134.431 32.7406 134.668 33.2158C134.906 33.691 135.334 33.9286 135.904 33.9286C136.379 33.9286 136.854 33.786 137.329 33.4534C137.805 33.1683 138.137 32.7881 138.327 32.313V12.2124H144.03Z" fill="#2B3D6B"/>
<path d="M130.297 7.46048H124.642V37.4925H119.083V7.46048H113.428V2.85114H130.297V7.46048Z" fill="#2B3D6B"/>
<path d="M162.895 16.2515C162.562 14.6358 161.992 13.4954 161.232 12.7826C160.471 12.0698 159.378 11.6897 158.048 11.6897C157.003 11.6897 156.005 11.9748 155.102 12.5925C154.199 13.1628 153.486 13.9706 153.011 14.921H152.963V1.56812H147.451V37.4925H152.156L152.726 35.1166H152.868C153.296 35.9719 153.961 36.6372 154.864 37.1599C155.767 37.6351 156.717 37.9202 157.81 37.9202C159.759 37.9202 161.137 37.0173 162.04 35.2591C162.942 33.5009 163.418 30.6973 163.418 26.9433V22.9517C163.37 20.053 163.227 17.8196 162.895 16.2515ZM157.668 26.5631C157.668 28.4164 157.573 29.8419 157.43 30.8874C157.288 31.9328 157.003 32.6931 156.67 33.1208C156.29 33.5484 155.815 33.786 155.244 33.786C154.769 33.786 154.341 33.691 153.961 33.4534C153.581 33.2158 153.248 32.8832 153.011 32.4555V18.1047C153.201 17.4395 153.534 16.8692 154.009 16.3941C154.484 15.9664 155.007 15.7288 155.529 15.7288C156.1 15.7288 156.575 15.9664 156.86 16.3941C157.193 16.8692 157.383 17.6295 157.525 18.675C157.668 19.7679 157.715 21.2885 157.715 23.2368V26.5631H157.668Z" fill="#2B3D6B"/>
</g>
</g>
<defs>
<clipPath id="clip0">
<rect width="181" height="40.3912" fill="white"/>
</clipPath>
</defs>
</svg>
