<svg width="457" height="509" viewBox="0 0 457 509" fill="none" xmlns="http://www.w3.org/2000/svg">
<g opacity="0.32" filter="url(#filter0_f)">
<path d="M215.835 463.344L46.9448 365.832C41.8904 362.996 42.6301 357.942 48.3009 354.613L221.753 254.512C227.547 251.183 236.3 250.813 241.231 253.649L410.121 351.161C415.176 353.997 414.436 359.051 408.765 362.38L235.313 462.481C229.643 465.81 220.89 466.18 215.835 463.344Z" fill="url(#paint0_linear)"/>
</g>
<path opacity="0.64" d="M215.835 393.74L46.9448 296.228C41.8904 293.392 42.6301 288.338 48.3009 285.009L221.753 184.908C227.547 181.579 236.3 181.209 241.231 184.045L410.121 281.557C415.176 284.393 414.436 289.447 408.765 292.776L235.313 392.877C229.643 396.206 220.89 396.576 215.835 393.74Z" fill="url(#paint1_linear)" stroke="url(#paint2_linear)" stroke-width="1.23278" stroke-miterlimit="10"/>
<path opacity="0.64" d="M219.534 355.538L99.3379 286.132C95.7629 284.037 96.256 280.462 100.324 278.119L223.725 206.865C227.793 204.522 234.081 204.276 237.656 206.248L357.852 275.654C361.427 277.749 360.933 281.325 356.865 283.667L233.464 354.921C229.273 357.387 223.109 357.634 219.534 355.538Z" fill="url(#paint3_linear)"/>
<path d="M222.616 330.019L143.471 284.406C141.129 283.05 141.376 280.708 144.088 279.105L225.328 232.26C228.04 230.657 232.108 230.534 234.45 231.89L313.595 277.503C315.937 278.859 315.69 281.201 312.978 282.804L231.738 329.649C229.026 331.128 224.958 331.375 222.616 330.019Z" stroke="url(#paint4_linear)" stroke-width="1.23278" stroke-miterlimit="10"/>
<path d="M214.233 286.748C214.233 287.365 214.11 287.858 213.863 288.474C213.616 289.091 213.37 289.584 212.877 290.077C212.507 290.57 212.014 291.063 211.644 291.556C211.151 292.049 210.658 292.543 210.165 293.036C209.918 293.282 209.672 293.529 209.302 293.899C208.932 294.268 208.685 294.515 208.439 294.885C208.192 295.255 207.946 295.501 207.699 295.871C207.453 296.241 207.329 296.487 207.329 296.611H214.726V299.076H204.001C204.001 298.953 204.001 298.83 204.001 298.583C204.001 298.337 204.001 298.213 204.001 298.213C204.001 297.474 204.124 296.734 204.371 296.118C204.617 295.501 204.987 294.885 205.357 294.268C205.727 293.652 206.22 293.159 206.713 292.666C207.206 292.173 207.699 291.68 208.192 291.186C208.562 290.817 208.932 290.447 209.302 290.077C209.672 289.707 209.918 289.337 210.288 288.968C210.535 288.598 210.781 288.228 210.904 287.858C211.028 287.488 211.151 287.118 211.151 286.748C211.151 285.886 210.904 285.269 210.411 284.899C209.918 284.529 209.302 284.406 208.685 284.406C208.192 284.406 207.822 284.529 207.453 284.653C207.083 284.776 206.713 284.899 206.466 285.146C206.22 285.269 205.85 285.516 205.727 285.639C205.48 285.886 205.357 286.009 205.234 286.132L203.754 284.036C204.371 283.42 205.234 282.927 206.097 282.434C206.959 282.064 207.946 281.817 209.055 281.817C210.904 281.817 212.137 282.187 213 283.05C213.863 283.913 214.233 285.269 214.233 286.748Z" fill="white"/>
<path d="M221.506 288.474C221.506 289.091 221.26 289.46 220.89 289.83C220.52 290.2 220.027 290.323 219.534 290.323C219.041 290.323 218.548 290.2 218.178 289.83C217.808 289.46 217.561 288.967 217.561 288.474C217.561 287.858 217.808 287.488 218.178 287.118C218.548 286.748 219.041 286.625 219.534 286.625C220.027 286.625 220.52 286.748 220.89 287.118C221.383 287.488 221.506 287.981 221.506 288.474ZM221.506 297.597C221.506 298.213 221.26 298.583 220.89 298.953C220.52 299.323 220.027 299.446 219.534 299.446C219.041 299.446 218.548 299.323 218.178 298.953C217.808 298.583 217.561 298.09 217.561 297.597C217.561 297.104 217.808 296.611 218.178 296.241C218.548 295.871 219.041 295.748 219.534 295.748C220.027 295.748 220.52 295.871 220.89 296.241C221.383 296.487 221.506 296.98 221.506 297.597Z" fill="white"/>
<path d="M232.108 294.392C232.108 293.899 231.985 293.406 231.738 292.912C231.492 292.543 231.122 292.173 230.629 291.803C230.136 291.556 229.396 291.31 228.533 291.187C227.67 291.063 226.561 290.94 225.205 290.94C225.328 289.337 225.574 287.981 225.574 286.502C225.574 285.023 225.698 283.667 225.821 282.311H234.327V284.776H228.287C228.287 285.023 228.287 285.392 228.287 285.762C228.287 286.132 228.287 286.502 228.163 286.872C228.163 287.242 228.163 287.611 228.04 287.858C228.04 288.228 227.917 288.474 227.917 288.721C230.259 288.844 232.108 289.337 233.218 290.324C234.327 291.31 234.944 292.543 234.944 294.268C234.944 295.008 234.82 295.748 234.574 296.364C234.327 296.981 233.957 297.597 233.341 298.09C232.848 298.583 232.108 298.953 231.368 299.2C230.506 299.446 229.643 299.569 228.533 299.569C228.04 299.569 227.67 299.569 227.177 299.446C226.684 299.323 226.314 299.323 225.944 299.2C225.574 299.076 225.205 299.076 224.835 298.953C224.465 298.83 224.218 298.707 224.095 298.707L224.711 296.241C225.081 296.364 225.574 296.611 226.191 296.734C226.807 296.981 227.547 296.981 228.533 296.981C229.149 296.981 229.643 296.857 230.136 296.734C230.629 296.611 230.999 296.364 231.245 296.118C231.492 295.871 231.738 295.625 231.862 295.255C231.985 295.008 232.108 294.762 232.108 294.392Z" fill="white"/>
<path d="M245.792 292.172C245.422 292.296 244.929 292.542 244.559 292.542C244.066 292.666 243.696 292.666 243.203 292.666C242.217 292.666 241.354 292.542 240.614 292.296C239.875 292.049 239.382 291.679 238.888 291.186C238.395 290.693 238.149 290.2 237.902 289.584C237.656 288.967 237.532 288.228 237.532 287.611C237.532 286.995 237.656 286.378 237.902 285.639C238.149 285.022 238.395 284.406 238.888 283.79C239.382 283.296 239.875 282.803 240.614 282.434C241.354 282.064 242.094 281.94 243.08 281.94C245.052 281.94 246.532 282.557 247.518 283.79C248.504 285.022 248.997 286.872 248.997 289.091C248.997 292.296 248.134 294.761 246.532 296.487C244.806 298.213 242.34 298.953 238.765 299.076L238.642 296.611C239.628 296.611 240.491 296.487 241.231 296.364C241.97 296.241 242.71 295.994 243.326 295.624C243.943 295.254 244.436 294.761 244.806 294.268C245.299 293.775 245.545 293.035 245.792 292.172ZM243.45 290.447C243.943 290.447 244.436 290.447 244.806 290.323C245.299 290.2 245.669 290.077 245.915 289.953C245.915 289.83 245.915 289.584 245.915 289.46C245.915 289.337 245.915 289.214 245.915 289.091C245.915 288.474 245.915 287.858 245.792 287.241C245.669 286.625 245.545 286.132 245.299 285.762C245.052 285.392 244.806 285.022 244.436 284.776C244.066 284.529 243.573 284.406 243.08 284.406C242.587 284.406 242.217 284.529 241.847 284.653C241.477 284.899 241.231 285.146 240.984 285.392C240.738 285.639 240.614 286.009 240.491 286.378C240.368 286.748 240.368 287.118 240.368 287.365C240.368 288.351 240.614 289.091 241.107 289.584C241.724 290.2 242.463 290.447 243.45 290.447Z" fill="white"/>
<path opacity="0.9" d="M199.686 273.188H198.083C197.837 273.188 197.714 273.065 197.714 272.818V267.887C197.714 267.64 197.837 267.517 198.083 267.517H199.686C199.933 267.517 200.056 267.64 200.056 267.887V272.818C200.056 272.941 199.933 273.188 199.686 273.188Z" fill="white"/>
<path opacity="0.9" d="M203.631 273.188H202.028C201.782 273.188 201.659 273.065 201.659 272.818V267.887C201.659 267.64 201.782 267.517 202.028 267.517H203.631C203.878 267.517 204.001 267.64 204.001 267.887V272.818C204.001 272.941 203.878 273.188 203.631 273.188Z" fill="white"/>
<path opacity="0.9" d="M207.576 273.188H205.973C205.727 273.188 205.603 273.065 205.603 272.818V267.887C205.603 267.64 205.727 267.517 205.973 267.517H207.576C207.822 267.517 207.946 267.64 207.946 267.887V272.818C207.946 272.941 207.822 273.188 207.576 273.188Z" fill="white"/>
<path opacity="0.9" d="M211.521 273.188H209.918C209.672 273.188 209.548 273.065 209.548 272.818V267.887C209.548 267.64 209.672 267.517 209.918 267.517H211.521C211.767 267.517 211.891 267.64 211.891 267.887V272.818C211.891 272.941 211.767 273.188 211.521 273.188Z" fill="white"/>
<path opacity="0.9" d="M215.466 273.188H213.863C213.616 273.188 213.493 273.065 213.493 272.818V267.887C213.493 267.64 213.616 267.517 213.863 267.517H215.466C215.712 267.517 215.835 267.64 215.835 267.887V272.818C215.835 272.941 215.712 273.188 215.466 273.188Z" fill="white"/>
<path opacity="0.9" d="M219.411 273.188H217.808C217.561 273.188 217.438 273.065 217.438 272.818V267.887C217.438 267.64 217.561 267.517 217.808 267.517H219.411C219.657 267.517 219.78 267.64 219.78 267.887V272.818C219.78 272.941 219.657 273.188 219.411 273.188Z" fill="white"/>
<path opacity="0.9" d="M223.355 273.188H221.753C221.506 273.188 221.383 273.065 221.383 272.818V267.887C221.383 267.64 221.506 267.517 221.753 267.517H223.355C223.602 267.517 223.725 267.64 223.725 267.887V272.818C223.725 272.941 223.602 273.188 223.355 273.188Z" fill="white"/>
<path opacity="0.9" d="M227.3 273.188H225.698C225.451 273.188 225.328 273.065 225.328 272.818V267.887C225.328 267.64 225.451 267.517 225.698 267.517H227.3C227.547 267.517 227.67 267.64 227.67 267.887V272.818C227.67 272.941 227.547 273.188 227.3 273.188Z" fill="white"/>
<path opacity="0.9" d="M231.245 273.188H229.643C229.396 273.188 229.273 273.065 229.273 272.818V267.887C229.273 267.64 229.396 267.517 229.643 267.517H231.245C231.492 267.517 231.615 267.64 231.615 267.887V272.818C231.615 272.941 231.492 273.188 231.245 273.188Z" fill="white"/>
<path opacity="0.9" d="M235.19 273.188H233.587C233.341 273.188 233.218 273.065 233.218 272.818V267.887C233.218 267.64 233.341 267.517 233.587 267.517H235.19C235.437 267.517 235.56 267.64 235.56 267.887V272.818C235.56 272.941 235.437 273.188 235.19 273.188Z" fill="white"/>
<path opacity="0.9" d="M239.135 273.188H237.532C237.286 273.188 237.163 273.065 237.163 272.818V267.887C237.163 267.64 237.286 267.517 237.532 267.517H239.135C239.382 267.517 239.505 267.64 239.505 267.887V272.818C239.505 272.941 239.382 273.188 239.135 273.188Z" fill="white"/>
<path opacity="0.9" d="M243.08 273.188H241.477C241.231 273.188 241.107 273.065 241.107 272.818V267.887C241.107 267.64 241.231 267.517 241.477 267.517H243.08C243.326 267.517 243.45 267.64 243.45 267.887V272.818C243.45 272.941 243.203 273.188 243.08 273.188Z" fill="white"/>
<path opacity="0.9" d="M247.025 273.188H245.422C245.176 273.188 245.052 273.065 245.052 272.818V267.887C245.052 267.64 245.176 267.517 245.422 267.517H247.025C247.271 267.517 247.395 267.64 247.395 267.887V272.818C247.395 272.941 247.148 273.188 247.025 273.188Z" fill="white"/>
<path opacity="0.32" d="M250.97 273.188H249.367C249.12 273.188 248.997 273.065 248.997 272.818V267.887C248.997 267.64 249.12 267.517 249.367 267.517H250.97C251.216 267.517 251.339 267.64 251.339 267.887V272.818C251.339 272.941 251.093 273.188 250.97 273.188Z" fill="white"/>
<path opacity="0.32" d="M254.915 273.188H253.312C253.065 273.188 252.942 273.065 252.942 272.818V267.887C252.942 267.64 253.065 267.517 253.312 267.517H254.915C255.161 267.517 255.284 267.64 255.284 267.887V272.818C255.284 272.941 255.038 273.188 254.915 273.188Z" fill="white"/>
<path d="M412.217 306.46C406.793 306.46 401.492 305.72 396.561 304.241C395.698 303.994 395.205 303.131 395.451 302.269C395.698 301.406 396.561 300.913 397.424 301.159C409.628 304.981 425.284 303.501 435.517 297.707C441.557 294.255 444.762 289.817 444.762 285.133C444.762 280.818 441.804 276.627 436.38 273.545C424.175 266.518 404.081 266.765 391.383 274.038C385.959 277.12 382.754 281.188 382.137 285.379C381.767 288.708 383 291.913 385.836 294.749C386.452 295.365 386.452 296.351 385.836 296.968C385.219 297.584 384.233 297.584 383.617 296.968C380.042 293.393 378.439 289.201 379.055 284.886C379.795 279.709 383.617 274.901 389.904 271.203C403.464 263.436 425.038 263.189 438.105 270.709C444.516 274.408 448.091 279.585 448.091 285.133C448.091 290.927 444.269 296.351 437.119 300.419C430.462 304.364 421.216 306.46 412.217 306.46Z" stroke="url(#paint5_linear)" stroke-width="0.308195" stroke-miterlimit="10"/>
<g opacity="0.56">
<path opacity="0.56" d="M417.271 327.047C411.847 327.047 406.546 326.308 401.615 324.828C400.752 324.582 400.259 323.719 400.506 322.856C400.752 321.993 401.615 321.5 402.478 321.746C414.683 325.568 430.339 324.089 440.571 318.295C446.612 314.843 449.817 310.405 449.817 305.72C449.817 301.406 446.858 297.214 441.434 294.132C429.229 287.105 409.135 287.352 396.437 294.625C391.013 297.707 387.808 301.775 387.192 305.967C386.822 309.295 388.055 312.501 390.89 315.336C391.506 315.952 391.506 316.939 390.89 317.555C390.274 318.171 389.287 318.171 388.671 317.555C385.096 313.98 383.493 309.789 384.11 305.474C384.849 300.296 388.671 295.488 394.958 291.79C408.519 284.023 430.092 283.777 443.16 291.297C449.57 294.995 453.145 300.173 453.145 305.72C453.145 311.514 449.324 316.939 442.174 321.007C435.517 324.952 426.394 327.047 417.271 327.047Z" fill="url(#paint6_linear)"/>
<path opacity="0.56" d="M42.2908 314.24C36.8666 314.24 31.5656 313.5 26.6345 312.021C25.7716 311.774 25.2785 310.911 25.525 310.048C25.7716 309.185 26.6345 308.692 27.4975 308.939C39.702 312.76 55.3583 311.281 65.5903 305.487C71.6309 302.035 74.8362 297.597 74.8362 292.913C74.8362 288.598 71.8775 284.407 66.4533 281.325C54.2488 274.298 34.1545 274.544 21.4569 281.818C16.0326 284.9 12.8274 288.968 12.211 293.159C11.8412 296.488 13.074 299.693 15.9094 302.528C16.5258 303.145 16.5258 304.131 15.9094 304.747C15.293 305.364 14.3067 305.364 13.6903 304.747C10.1153 301.172 8.51269 296.981 9.12908 292.666C9.86875 287.489 13.6903 282.681 19.9775 278.982C33.5381 271.216 55.1117 270.969 68.1792 278.489C74.5896 282.188 78.1647 287.365 78.1647 292.913C78.1647 298.707 74.343 304.131 67.1929 308.199C60.5359 312.144 51.4134 314.24 42.2908 314.24Z" fill="url(#paint7_linear)"/>
</g>
<path d="M412.587 105V286.095" stroke="url(#paint8_linear)" stroke-width="0.616389" stroke-miterlimit="10"/>
<path d="M231.39 0.411133V181.506" stroke="url(#paint9_linear)" stroke-width="0.616389" stroke-miterlimit="10"/>
<path d="M120.288 157.402V338.497" stroke="url(#paint10_linear)" stroke-width="0.616389" stroke-miterlimit="10"/>
<path d="M223.725 417.656C218.301 417.656 213 416.917 208.069 415.437C207.206 415.191 206.713 414.328 206.959 413.465C207.206 412.602 208.069 412.109 208.932 412.355C221.136 416.177 236.793 414.698 247.025 408.904C253.065 405.452 256.271 401.014 256.271 396.329C256.271 392.015 253.312 387.823 247.888 384.741C235.683 377.714 215.589 377.961 202.891 385.234C197.467 388.316 194.262 392.384 193.645 396.576C193.276 399.904 194.508 403.11 197.344 405.945C197.96 406.561 197.96 407.548 197.344 408.164C196.727 408.78 195.741 408.78 195.125 408.164C191.55 404.589 189.947 400.397 190.564 396.083C191.303 390.905 195.125 386.097 201.412 382.399C214.973 374.632 236.546 374.386 249.614 381.906C256.024 385.604 259.599 390.782 259.599 396.329C259.599 402.123 255.778 407.548 248.627 411.616C241.97 415.561 232.848 417.656 223.725 417.656Z" stroke="url(#paint11_linear)" stroke-width="0.308195" stroke-miterlimit="10"/>
<defs>
<filter id="filter0_f" x="0.0880699" y="208.271" width="456.89" height="300.451" filterUnits="userSpaceOnUse" color-interpolation-filters="sRGB">
<feFlood flood-opacity="0" result="BackgroundImageFix"/>
<feBlend mode="normal" in="SourceGraphic" in2="BackgroundImageFix" result="shape"/>
<feGaussianBlur stdDeviation="21.7373" result="effect1_foregroundBlur"/>
</filter>
<linearGradient id="paint0_linear" x1="43.6163" y1="358.493" x2="413.574" y2="358.493" gradientUnits="userSpaceOnUse">
<stop stop-color="#00A6FF"/>
<stop offset="1" stop-color="#8AA6FF"/>
</linearGradient>
<linearGradient id="paint1_linear" x1="43.6163" y1="288.889" x2="413.574" y2="288.889" gradientUnits="userSpaceOnUse">
<stop stop-color="#00A6FF"/>
<stop offset="1" stop-color="#8AA6FF"/>
</linearGradient>
<linearGradient id="paint2_linear" x1="42.9999" y1="288.889" x2="414.191" y2="288.889" gradientUnits="userSpaceOnUse">
<stop stop-color="#F7C2C5"/>
<stop offset="1" stop-color="#F7DEDF"/>
</linearGradient>
<linearGradient id="paint3_linear" x1="96.9146" y1="280.89" x2="360.276" y2="280.89" gradientUnits="userSpaceOnUse">
<stop stop-color="#00A6FF"/>
<stop offset="1" stop-color="#8AA6FF"/>
</linearGradient>
<linearGradient id="paint4_linear" x1="141.36" y1="280.89" x2="315.831" y2="280.89" gradientUnits="userSpaceOnUse">
<stop stop-color="#00A6FF"/>
<stop offset="1" stop-color="#8AA6FF"/>
</linearGradient>
<linearGradient id="paint5_linear" x1="378.834" y1="285.782" x2="448.314" y2="285.782" gradientUnits="userSpaceOnUse">
<stop stop-color="#00A6FF"/>
<stop offset="1" stop-color="#8AA6FF"/>
</linearGradient>
<linearGradient id="paint6_linear" x1="405.044" y1="307.789" x2="423.624" y2="305.893" gradientUnits="userSpaceOnUse">
<stop stop-color="#00A6FF"/>
<stop offset="0.0309671" stop-color="#14A6FF" stop-opacity="0.969"/>
<stop offset="0.089507" stop-color="#33A6FF" stop-opacity="0.9105"/>
<stop offset="0.1558" stop-color="#4FA6FF" stop-opacity="0.8442"/>
<stop offset="0.2307" stop-color="#65A6FF" stop-opacity="0.7693"/>
<stop offset="0.3183" stop-color="#76A6FF" stop-opacity="0.6817"/>
<stop offset="0.4266" stop-color="#81A6FF" stop-opacity="0.5734"/>
<stop offset="0.5784" stop-color="#88A6FF" stop-opacity="0.4216"/>
<stop offset="1" stop-color="#8AA6FF" stop-opacity="0"/>
</linearGradient>
<linearGradient id="paint7_linear" x1="30.063" y1="294.982" x2="48.6433" y2="293.086" gradientUnits="userSpaceOnUse">
<stop stop-color="#00A6FF"/>
<stop offset="0.0309671" stop-color="#14A6FF" stop-opacity="0.969"/>
<stop offset="0.089507" stop-color="#33A6FF" stop-opacity="0.9105"/>
<stop offset="0.1558" stop-color="#4FA6FF" stop-opacity="0.8442"/>
<stop offset="0.2307" stop-color="#65A6FF" stop-opacity="0.7693"/>
<stop offset="0.3183" stop-color="#76A6FF" stop-opacity="0.6817"/>
<stop offset="0.4266" stop-color="#81A6FF" stop-opacity="0.5734"/>
<stop offset="0.5784" stop-color="#88A6FF" stop-opacity="0.4216"/>
<stop offset="1" stop-color="#8AA6FF" stop-opacity="0"/>
</linearGradient>
<linearGradient id="paint8_linear" x1="412.543" y1="285.757" x2="412.543" y2="110.651" gradientUnits="userSpaceOnUse">
<stop stop-color="#00A6FF"/>
<stop offset="1" stop-color="#8AA6FF" stop-opacity="0"/>
</linearGradient>
<linearGradient id="paint9_linear" x1="231.346" y1="181.168" x2="231.346" y2="6.06215" gradientUnits="userSpaceOnUse">
<stop stop-color="#00A6FF"/>
<stop offset="1" stop-color="#8AA6FF" stop-opacity="0"/>
</linearGradient>
<linearGradient id="paint10_linear" x1="120.244" y1="338.159" x2="120.244" y2="163.053" gradientUnits="userSpaceOnUse">
<stop stop-color="#00A6FF"/>
<stop offset="1" stop-color="#8AA6FF" stop-opacity="0"/>
</linearGradient>
<linearGradient id="paint11_linear" x1="190.39" y1="396.986" x2="259.871" y2="396.986" gradientUnits="userSpaceOnUse">
<stop stop-color="#00A6FF"/>
<stop offset="1" stop-color="#8AA6FF"/>
</linearGradient>
</defs>
</svg>
