<svg width="40" height="40" viewBox="0 0 40 40" fill="none" xmlns="http://www.w3.org/2000/svg">
<path opacity="0.3" fill-rule="evenodd" clip-rule="evenodd" d="M28.0183 14.1665C26.9082 9.85344 22.9929 6.6665 18.3333 6.6665C12.8105 6.6665 8.33333 11.1437 8.33333 16.6665C8.33333 19.5405 9.54572 22.1313 11.4869 23.9554C12.3818 25.572 14.1047 26.6665 16.0833 26.6665H18.3333H33.0833C35.9828 26.6665 38.3333 24.316 38.3333 21.4165V19.4165C38.3333 16.517 35.9828 14.1665 33.0833 14.1665H28.0183Z" fill="#00A6FF"/>
<path fill-rule="evenodd" clip-rule="evenodd" d="M21.3516 20.8335C20.2415 16.5204 16.3263 13.3335 11.6667 13.3335C6.14382 13.3335 1.66667 17.8106 1.66667 23.3335C1.66667 26.2075 2.87905 28.7983 4.82028 30.6224C5.71514 32.239 7.43808 33.3335 9.41667 33.3335H11.6667H26.4167C29.3162 33.3335 31.6667 30.983 31.6667 28.0835V26.0835C31.6667 23.184 29.3162 20.8335 26.4167 20.8335H21.3516Z" fill="#00A6FF"/>
</svg>
