<svg width="32" height="28" viewBox="0 0 32 28" fill="none" xmlns="http://www.w3.org/2000/svg">
<path fill-rule="evenodd" clip-rule="evenodd" d="M0.333313 1.6665C0.333313 1.11422 0.781028 0.666504 1.33331 0.666504H31C31.5523 0.666504 32 1.11422 32 1.6665V6.33317C32 6.88546 31.5523 7.33317 31 7.33317H1.33331C0.781027 7.33317 0.333313 6.88546 0.333313 6.33317V1.6665ZM0.333313 11.6665C0.333313 11.1142 0.781028 10.6665 1.33331 10.6665H19.3333C19.8856 10.6665 20.3333 11.1142 20.3333 11.6665V16.3332C20.3333 16.8855 19.8856 17.3332 19.3333 17.3332H1.33331C0.781028 17.3332 0.333313 16.8855 0.333313 16.3332V11.6665ZM1.33331 20.6665C0.781028 20.6665 0.333313 21.1142 0.333313 21.6665V26.3332C0.333313 26.8855 0.781028 27.3332 1.33331 27.3332H19.3333C19.8856 27.3332 20.3333 26.8855 20.3333 26.3332V21.6665C20.3333 21.1142 19.8856 20.6665 19.3333 20.6665H1.33331Z" fill="#00A6FF"/>
</svg>
