<svg width="40" height="40" viewBox="0 0 40 40" fill="none" xmlns="http://www.w3.org/2000/svg">
<path opacity="0.3" fill-rule="evenodd" clip-rule="evenodd" d="M23.5607 18.5107C22.9749 19.0965 22.9749 20.0462 23.5607 20.632L28.5104 25.5817C29.0962 26.1675 30.046 26.1675 30.6317 25.5817L35.5815 20.632C36.1673 20.0462 36.1673 19.0965 35.5815 18.5107L30.6317 13.5609C30.046 12.9751 29.0962 12.9751 28.5104 13.5609L23.5607 18.5107ZM3.56068 18.5107C2.97489 19.0965 2.97489 20.0462 3.56068 20.632L8.51042 25.5817C9.09621 26.1675 10.046 26.1675 10.6317 25.5817L15.5815 20.632C16.1673 20.0462 16.1673 19.0965 15.5815 18.5107L10.6317 13.5609C10.046 12.9751 9.09621 12.9751 8.51042 13.5609L3.56068 18.5107Z" fill="#00A6FF"/>
<path fill-rule="evenodd" clip-rule="evenodd" d="M13.5607 8.51067C12.9749 9.09645 12.9749 10.0462 13.5607 10.632L18.5104 15.5817C19.0962 16.1675 20.046 16.1675 20.6317 15.5817L25.5815 10.632C26.1673 10.0462 26.1673 9.09645 25.5815 8.51067L20.6317 3.56092C20.046 2.97514 19.0962 2.97514 18.5104 3.56092L13.5607 8.51067ZM13.5607 28.5107C12.9749 29.0965 12.9749 30.0462 13.5607 30.632L18.5104 35.5817C19.0962 36.1675 20.046 36.1675 20.6317 35.5817L25.5815 30.632C26.1673 30.0462 26.1673 29.0965 25.5815 28.5107L20.6317 23.5609C20.046 22.9751 19.0962 22.9751 18.5104 23.5609L13.5607 28.5107Z" fill="#00A6FF"/>
</svg>
