<svg width="40" height="40" viewBox="0 0 40 40" fill="none" xmlns="http://www.w3.org/2000/svg">
<rect opacity="0.3" x="25" y="18.3335" width="3.33333" height="20" rx="1" transform="rotate(90 25 18.3335)" fill="#00A6FF"/>
<path opacity="0.3" d="M16.6768 11.6665C16.6768 12.587 15.9309 13.3332 15.0108 13.3332C14.0908 13.3332 13.3449 12.587 13.3449 11.6665V9.99984C13.3449 6.31794 16.3284 3.33317 20.0087 3.33317H30.0029C33.6832 3.33317 36.6667 6.31794 36.6667 9.99984V29.9998C36.6667 33.6817 33.6832 36.6665 30.0029 36.6665H19.9971C16.3168 36.6665 13.3333 33.6817 13.3333 29.9998V28.3332C13.3333 27.4127 14.0792 26.6665 14.9993 26.6665C15.9194 26.6665 16.6652 27.4127 16.6652 28.3332V29.9998C16.6652 31.8408 18.157 33.3332 19.9971 33.3332H30.0029C31.843 33.3332 33.3348 31.8408 33.3348 29.9998V9.99984C33.3348 8.15889 31.843 6.6665 30.0029 6.6665H20.0087C18.1685 6.6665 16.6768 8.15889 16.6768 9.99984V11.6665Z" fill="#00A6FF"/>
<path d="M20.4882 16.1783C19.8373 15.5275 19.8373 14.4722 20.4882 13.8213C21.139 13.1705 22.1943 13.1705 22.8452 13.8213L27.8452 18.8213C28.496 19.4722 28.496 20.5275 27.8452 21.1783L22.8452 26.1783C22.1943 26.8292 21.139 26.8292 20.4882 26.1783C19.8373 25.5275 19.8373 24.4722 20.4882 23.8213L24.3096 19.9998L20.4882 16.1783Z" fill="#00A6FF"/>
</svg>
